<?xml version="1.0" standalone="no"?>
<!DOCTYPE svg PUBLIC "-//W3C//DTD SVG 20010904//EN"
 "http://www.w3.org/TR/2001/REC-SVG-20010904/DTD/svg10.dtd">
<svg version="1.0" xmlns="http://www.w3.org/2000/svg"
 width="240.000000pt" height="240.000000pt" viewBox="0 0 240.000000 240.000000"
 preserveAspectRatio="xMidYMid meet">

<g transform="translate(0.000000,240.000000) scale(0.100000,-0.100000)"
fill="#000000" stroke="none">
<path d="M0 1313 l0 -1088 23 28 c19 24 27 27 55 21 18 -4 32 -13 32 -21 0
-11 14 -14 68 -12 37 2 73 7 80 12 8 6 12 36 12 83 0 70 1 74 25 80 14 3 23
10 20 14 -11 18 34 51 90 65 33 8 127 18 208 22 81 3 150 9 152 13 2 3 -8 44
-21 91 -23 75 -25 96 -20 199 5 116 27 255 46 290 20 38 51 50 130 50 l76 0
41 62 c49 76 154 178 181 178 17 0 21 -9 27 -62 8 -76 19 -116 52 -185 23 -47
27 -51 48 -43 16 6 40 5 72 -5 122 -35 191 -30 249 16 30 23 40 27 56 18 11
-6 28 -9 38 -6 27 7 54 -13 106 -78 48 -59 49 -61 48 -127 -2 -62 6 -83 20
-59 7 11 104 -24 128 -46 40 -36 13 -162 -48 -224 l-35 -35 53 -50 c29 -27
100 -90 157 -139 l103 -89 18 24 17 23 7 -36 c4 -22 21 -49 44 -71 l37 -37 3
177 c1 102 -2 198 -9 228 -6 28 -11 64 -12 79 -1 15 -9 32 -17 37 -12 8 -9 10
12 10 l27 0 1 840 0 840 -1200 0 -1200 0 0 -1087z m1334 907 c153 -39 292
-132 401 -268 33 -40 67 -81 75 -90 9 -9 45 -69 82 -132 36 -63 80 -131 97
-151 34 -40 49 -92 33 -111 -5 -7 -10 -62 -11 -122 0 -80 -5 -115 -16 -133
-27 -40 -35 -26 -35 56 0 44 -4 83 -10 86 -5 3 -10 16 -10 28 0 18 -2 19 -10
7 -8 -12 -10 -12 -10 5 0 17 -2 17 -10 5 -9 -13 -10 -13 -10 0 0 16 -38 67
-86 115 -17 17 -33 39 -37 49 -4 10 -12 14 -19 10 -8 -5 -9 -2 -5 10 4 10 3
15 -3 11 -12 -8 -76 55 -71 70 1 6 -1 7 -5 3 -4 -4 -35 8 -69 27 -126 71 -275
107 -360 87 -43 -9 -69 -6 -59 9 3 5 -7 9 -23 7 -15 -1 -38 4 -51 11 -15 8
-28 9 -35 3 -7 -5 -36 -8 -64 -7 -29 0 -53 -2 -53 -6 0 -4 -14 -11 -32 -14
-39 -9 -65 -23 -100 -53 -14 -13 -30 -22 -35 -20 -4 1 -9 -7 -11 -19 -2 -13
-10 -23 -19 -23 -9 0 -13 -6 -10 -14 3 -7 1 -18 -3 -22 -5 -5 -13 -27 -17 -48
l-8 -39 -37 54 c-20 30 -42 71 -48 92 -39 123 70 329 232 438 149 101 301 130
462 89z m-224 -430 c0 -5 -2 -10 -4 -10 -3 0 -8 5 -11 10 -3 6 -1 10 4 10 6 0
11 -4 11 -10z m254 -105 c15 -8 31 -13 35 -10 17 10 133 -40 189 -82 27 -20
30 -27 22 -44 -9 -15 -18 -18 -48 -14 -20 3 -116 7 -212 9 -134 3 -186 8 -220
21 -25 9 -55 19 -67 22 -19 4 -20 8 -11 28 16 35 100 68 193 75 44 4 82 8 85
8 3 1 18 -5 34 -13z m-95 -214 c-20 -27 -21 -38 -17 -113 10 -142 57 -216 129
-201 30 6 32 4 21 -9 -11 -13 -6 -17 32 -27 58 -14 141 -14 169 1 12 6 31 23
42 36 40 51 46 56 27 22 -45 -79 -126 -99 -257 -65 -120 31 -160 82 -176 222
-5 48 -12 95 -14 103 -3 9 9 24 28 38 41 28 42 28 16 -7z m-204 -121 c-3 -5
-12 -10 -20 -10 -7 0 -16 -6 -18 -12 -4 -8 -6 -7 -6 4 -1 16 12 26 37 27 7 1
10 -3 7 -9z m517 -41 c15 -8 15 -13 -3 -59 -10 -28 -19 -61 -19 -75 0 -33 -14
-39 -35 -15 -36 40 -158 49 -172 13 -4 -11 -10 -10 -29 8 -18 16 -22 28 -17
50 5 25 3 28 -12 22 -13 -4 -16 -3 -11 5 4 7 14 12 22 12 8 0 14 8 14 18 0 29
54 41 155 35 50 -3 97 -9 107 -14z m128 6 c0 -8 -4 -15 -10 -15 -5 0 -7 7 -4
15 4 8 8 15 10 15 2 0 4 -7 4 -15z m-690 -12 c0 -5 -5 -15 -10 -23 -8 -13 -10
-13 -10 2 0 9 -6 19 -12 21 -7 3 -3 6 10 6 12 1 22 -2 22 -6z m-70 -32 c-15
-30 -12 -33 15 -15 14 9 25 12 25 6 0 -13 -45 -42 -64 -42 -10 0 -13 6 -10 15
7 18 -17 20 -34 3 -13 -13 -42 5 -42 27 0 15 17 20 78 23 40 2 42 1 32 -17z
m-155 -32 c11 -17 -1 -21 -15 -4 -8 9 -8 15 -2 15 6 0 14 -5 17 -11z m1094
-50 c11 -23 21 -35 23 -27 9 24 58 -158 63 -228 2 -38 2 -55 -1 -39 -12 77
-34 132 -57 144 -24 13 -70 100 -81 153 -5 20 -2 28 11 31 10 3 19 5 21 6 2 0
11 -17 21 -40z m162 -13 c-7 -8 -10 -19 -7 -25 3 -5 2 -20 -3 -33 -9 -21 -10
-21 -10 10 -1 34 16 78 26 68 3 -3 0 -12 -6 -20z m-4 -108 c-3 -8 -6 -5 -6 6
-1 11 2 17 5 13 3 -3 4 -12 1 -19z m280 -540 c-3 -7 -5 -2 -5 12 0 14 2 19 5
13 2 -7 2 -19 0 -25z"/>
<path d="M1338 1278 c-4 -37 -4 -44 1 -52 2 -5 8 -1 12 10 7 17 8 17 8 2 1
-28 21 -21 21 7 0 26 -39 57 -42 33z"/>
<path d="M1015 1160 c-10 -17 23 -60 45 -60 27 0 25 22 -3 48 -26 25 -33 27
-42 12z"/>
<path d="M1142 1149 c-35 -13 -26 -35 21 -53 23 -9 48 -16 54 -16 38 0 12 64
-30 72 -13 3 -34 1 -45 -3z"/>
<path d="M960 1024 c-38 -27 -71 -59 -55 -52 40 15 83 43 93 59 16 25 5 23
-38 -7z"/>
<path d="M930 899 c0 -5 5 -7 10 -4 6 3 10 8 10 11 0 2 -4 4 -10 4 -5 0 -10
-5 -10 -11z"/>
<path d="M895 890 c-4 -6 -3 -16 3 -22 6 -6 12 -6 17 2 4 6 3 16 -3 22 -6 6
-12 6 -17 -2z"/>
<path d="M1232 818 c35 -29 68 -36 68 -15 0 17 -40 40 -73 41 l-28 1 33 -27z"/>
<path d="M1953 808 c-9 -10 -2 -13 33 -13 26 0 43 4 41 10 -5 15 -62 18 -74 3z"/>
<path d="M1882 739 c-16 -24 -12 -32 12 -23 9 3 16 15 16 25 0 25 -12 24 -28
-2z"/>
<path d="M1032 640 c10 -6 61 -26 114 -46 99 -36 194 -94 194 -120 0 -8 2 -14
5 -14 6 0 78 40 88 49 14 14 -61 70 -100 76 -21 3 -67 15 -103 25 -36 10 -86
21 -112 24 -27 3 -60 8 -75 11 -23 5 -25 4 -11 -5z"/>
<path d="M421 374 c0 -11 3 -14 6 -6 3 7 2 16 -1 19 -3 4 -6 -2 -5 -13z"/>
<path d="M493 363 c-3 -10 -8 -21 -10 -25 -10 -19 6 -5 21 17 9 14 12 25 6 25
-6 0 -13 -8 -17 -17z"/>
<path d="M415 259 c2 -52 7 -103 10 -111 6 -14 -7 -16 -112 -15 -65 1 -120 5
-124 9 -11 16 -100 20 -144 8 l-45 -13 0 -68 0 -69 296 0 296 0 -36 49 c-20
26 -34 50 -32 52 2 2 0 22 -5 44 l-8 40 3 -43 c4 -46 -5 -52 -40 -27 -14 9
-24 30 -28 62 -13 91 -16 108 -26 143 -7 27 -9 14 -5 -61z m-325 -184 c-33
-34 -50 -43 -50 -27 0 7 70 61 79 62 3 0 -10 -16 -29 -35z"/>
<path d="M1182 339 c-13 -5 -21 -13 -17 -19 3 -6 -1 -7 -10 -4 -9 4 -15 3 -14
-2 3 -20 -2 -35 -10 -30 -5 3 -11 -8 -13 -25 l-5 -30 39 43 c34 38 63 79 56
77 -2 0 -13 -4 -26 -10z"/>
<path d="M437 316 c-3 -8 0 -17 8 -20 14 -5 28 17 18 28 -10 10 -21 7 -26 -8z"/>
<path d="M492 290 c-1 -14 3 -43 7 -65 6 -26 9 -31 9 -15 1 14 -3 43 -7 65 -6
26 -9 31 -9 15z"/>
<path d="M1497 143 c-9 -16 -27 -35 -41 -43 -29 -15 -30 -18 -13 -41 14 -18
57 -35 57 -22 0 11 76 10 86 0 4 -4 15 -7 25 -7 9 0 19 -6 22 -13 2 -7 26 -13
55 -15 l51 -3 -35 37 c-18 21 -37 46 -40 56 -4 15 -12 18 -32 14 -38 -7 -94
15 -108 43 l-12 24 -15 -30z"/>
<path d="M1367 63 c-2 -5 -7 -20 -11 -35 -6 -25 -4 -28 19 -28 14 0 25 6 25
13 0 6 3 22 6 35 5 17 2 22 -14 22 -12 0 -23 -3 -25 -7z"/>
<path d="M625 49 c-11 -17 1 -21 15 -4 8 9 8 15 2 15 -6 0 -14 -5 -17 -11z"/>
<path d="M816 21 c-4 -7 -5 -15 -2 -18 9 -9 19 4 14 18 -4 11 -6 11 -12 0z"/>
</g>
</svg>
